<?xml version="1.0" encoding="UTF-8" standalone="no"?>
<svg
   height="2500"
   width="2500"
   viewBox="44 11 911.963 978.148"
   version="1.1"
   id="svg3"
   xmlns="http://www.w3.org/2000/svg"
   xmlns:svg="http://www.w3.org/2000/svg">
  <defs
     id="defs3" />
  <g
     fill-rule="evenodd"
     id="g3">
    <path
       d="m 856.1358,290.16876 -0.12864,-0.4079 c 32.73396,36.43487 49.54885,79.69579 50.44152,129.7859 0.89424,50.08853 -15.92064,102.92725 -50.82903,158.35143 26.0899,-20.28204 56.21958,-64.06067 90.29021,-130.83074 14.71734,135.31607 -39.96635,238.10056 -164.5625,308.4931 39.77965,-3.66796 92.59484,-29.85827 158.10042,-78.66192 C 869.54473,845.19497 741.01391,933.99007 553.8569,943.28548 372.97998,943.23684 255.80603,834.54094 255.89703,834.60997 181.53374,776.73212 130.36898,703.7855 102.57688,616.09488 58.100105,567.52342 57.65769,562.31485 53.068817,542.90823 c -4.587305,-19.40976 2.899226,-24.83169 15.926921,-43.82257 8.686698,-12.66058 10.732473,-30.87488 6.270676,-54.31343 -11.072913,-15.35587 -17.448702,-39.4047 -19.128935,-72.14808 0,-15.82338 10.558331,-32.51903 31.681269,-50.0854 21.119802,-17.56793 34.078462,-31.07883 38.772452,-40.37894 3.58011,-5.07208 4.96383,-27.05632 4.1496,-65.95428 -0.21964,-38.20609 20.99429,-58.9933 63.64022,-62.35847 63.96654,-5.05168 100.04215,-53.15876 120.13906,-75.037884 13.39794,-14.585558 33.22815,-21.675171 58.23555,-21.811661 35.21117,-1.650425 67.247,11.846354 94.84457,39.699639 68.73897,-3.555004 139.15033,14.982476 210.49358,55.141786 101.38509,60.22641 156.7167,125.44646 165.99329,195.33383 -10.86583,91.97357 -134.4187,89.5701 -370.10638,-7.23552 C 350.64275,374.87388 290.0053,450.58009 292.0197,567.0559 c -0.0831,106.88388 51.6464,184.55116 154.83408,232.92337 -50.29405,-49.37628 -71.71193,-90.87852 -64.49838,-125.24879 104.61063,123.88704 223.76759,170.19151 357.26694,138.92285 -58.85681,2.05519 -105.4782,-16.88391 -140.56543,-57.0997 90.23686,-2.19325 175.42048,-44.083 255.63555,-126.09283 -46.30448,36.84904 -94.75827,50.80079 -146.06109,42.02466 C 847.57932,563.24517 896.74851,435.80627 856.1358,290.16876 Z M 603.947,273.36329 c 11.26431,0 20.395,-9.13068 20.395,-20.395 0,-11.26431 -9.13069,-20.39499 -20.395,-20.39499 -11.26431,0 -20.39499,9.13068 -20.39499,20.39499 0,11.26432 9.13068,20.395 20.39499,20.395 z"
       id="path3"/>
  </g>
</svg>
