<svg width="60" height="60" viewBox="0 0 60 60" fill="none" xmlns="http://www.w3.org/2000/svg">
<path d="M19.1 25.95C19.1 26.575 19.15 27.075 19.275 27.5C19.4 27.8 19.575 28.2 19.8 28.65C19.9 28.75 19.925 28.9 19.925 29.025C19.925 29.2 19.825 29.35 19.6 29.525L18.55 30.225C18.4 30.325 18.25 30.375 18.125 30.375C17.95 30.375 17.8 30.275 17.625 30.125C17.4 29.875 17.2 29.625 17.025 29.35C16.875 29.075 16.7 28.75 16.525 28.375C15.225 29.9 13.6 30.675 11.625 30.675C10.225 30.675 9.12502 30.275 8.30002 29.475C7.50002 28.675 7.07502 27.6 7.07502 26.25C7.07502 24.875 7.57503 23.75 8.57502 22.85C9.60002 22 10.95 21.55 12.65 21.55C13.225 21.55 13.75 21.6 14.425 21.7C15 21.775 15.675 21.9 16.325 22.05V20.85C16.325 19.575 16.075 18.75 15.55 18.175C15 17.65 14.125 17.425 12.85 17.425C12.25 17.425 11.65 17.5 11.05 17.625C10.425 17.775 9.82502 17.95 9.25002 18.2C8.97502 18.3 8.75002 18.375 8.67502 18.4C8.55002 18.45 8.47502 18.45 8.40002 18.45C8.17502 18.45 8.05002 18.3 8.05002 17.95V17.125C8.05002 16.875 8.07502 16.675 8.17502 16.55C8.25002 16.425 8.40002 16.325 8.62502 16.25C9.22502 15.9 9.90002 15.65 10.725 15.45C11.55 15.225 12.4 15.125 13.325 15.125C15.3 15.125 16.75 15.575 17.675 16.475C18.6 17.375 19.05 18.75 19.05 20.575V25.95H19.1ZM12.35 28.5C12.9 28.5 13.45 28.4 14.05 28.2C14.65 28 15.175 27.625 15.625 27.125C15.9 26.8 16.1 26.45 16.25 26.05C16.25 25.65 16.375 25.175 16.375 24.6V23.925C15.875 23.75 15.375 23.75 14.825 23.625C14.3 23.575 13.75 23.525 13.275 23.525C12.15 23.525 11.35 23.75 10.8 24.2C10.25 24.65 10 25.275 10 26.1C10 26.9 10.175 27.5 10.6 27.875C11 28.3 11.575 28.5 12.35 28.5ZM25.7 30.275C25.4 30.275 25.2 30.225 25 30.125C24.925 30 24.8 29.775 24.7 29.475L20.8 16.625C20.7 16.25 20.65 16.075 20.65 15.95C20.65 15.675 20.775 15.525 21.05 15.525H22.675C23 15.525 23.225 15.575 23.325 15.7C23.475 15.8 23.575 16.025 23.675 16.35L26.45 27.35L29.05 16.35C29.125 16.025 29.225 15.8 29.375 15.7C29.5 15.6 29.725 15.525 30 15.525H31.375C31.675 15.525 31.9 15.575 32.025 15.7C32.15 15.8 32.275 16.025 32.35 16.35L35 27.5L37.85 16.35C37.95 16.025 38.075 15.8 38.175 15.7C38.325 15.6 38.525 15.525 38.825 15.525H40.375C40.65 15.525 40.8 15.675 40.8 15.95C40.8 16.025 40.775 16.125 40.75 16.25C40.75 16.25 40.7 16.45 40.65 16.625L36.625 29.475C36.525 29.825 36.425 30 36.25 30.125C36.15 30.225 35.925 30.3 35.65 30.3H34.225C33.9 30.3 33.75 30.25 33.55 30.125C33.425 30 33.3 29.8 33.25 29.475L30.675 18.75L28.1 29.45C28.025 29.775 27.925 30 27.8 30.125C27.65 30.225 27.425 30.275 27.125 30.275H25.7ZM47.075 30.725C46.25 30.725 45.325 30.625 44.5 30.425C43.675 30.225 43.025 30 42.6 29.775C42.325 29.625 42.15 29.45 42.075 29.3C42 29.15 41.975 29 41.975 28.85V28C41.975 27.65 42.1 27.5 42.35 27.5C42.5 27.5 42.5 27.5 42.65 27.5C42.75 27.5 42.9 27.625 43.075 27.7C43.625 27.95 44.25 28.15 44.9 28.275C45.575 28.4 46.25 28.475 46.875 28.475C47.925 28.475 48.75 28.3 49.3 27.925C49.875 27.5 50.175 27.025 50.175 26.35C50.175 25.875 50 25.5 49.725 25.175C49.425 24.875 48.85 24.575 48.05 24.325L45.625 23.575C44.425 23.175 43.525 22.625 42.975 21.875C42.425 21.15 42.15 20.325 42.15 19.45C42.15 18.75 42.3 18.15 42.6 17.625C42.9 17.075 43.3 16.625 43.75 16.25C44.3 15.875 44.85 15.6 45.525 15.4C46.175 15.2 46.875 15.1 47.625 15.1C47.975 15.1 48.35 15.125 48.75 15.175C49.1 15.225 49.45 15.3 49.8 15.35C50.15 15.45 50.45 15.525 50.75 15.625C51.05 15.725 51.25 15.825 51.45 15.925C51.675 16.05 51.85 16.175 51.95 16.325C52.05 16.475 52.1 16.65 52.1 16.875V17.675C52.1 18.025 51.975 18.2 51.725 18.2C51.6 18.2 51.375 18.125 51.075 18C50.15 17.575 49.075 17.35 47.9 17.35C46.95 17.35 46.25 17.5 45.675 17.825C45.175 18.125 44.9 18.625 44.9 19.3C44.9 19.775 45.075 20.175 45.4 20.475C45.725 20.8 46.35 21.1 47.225 21.4L49.6 22.15C50.8 22.5 51.65 23.05 52.175 23.75C52.675 24.425 52.925 25.2 52.925 26.075C52.925 26.775 52.775 27.425 52.5 28C52.2 28.55 51.8 29.05 51.25 29.45C50.775 29.875 50.15 30.175 49.45 30.4C48.75 30.625 47.9 30.725 47.075 30.725ZM50.2 38.825C44.725 42.85 36.775 45 30 45C20.375 45 11.75 41.45 5.22502 35.575C4.70003 35.1 5.17503 34.475 5.80002 34.85C12.85 38.925 21.525 41.4 30.525 41.4C36.6 41.4 43.275 40.15 49.4 37.5C50.325 37.125 51.1 38.15 50.2 38.825ZM52.5 36.25C51.775 35.325 47.85 35.8 46.075 36C45.55 36.075 45.475 35.6 45.95 35.25C49.075 33.075 54.225 33.75 54.8 34.425C55.4 35.175 54.65 40.325 51.725 42.775C51.25 43.15 50.825 42.95 51.025 42.5C51.7 40.8 53.175 37.1 52.5 36.25Z" fill="white" fill-opacity="0.38"/>
</svg>
