<svg width="60" height="60" viewBox="0 0 60 60" fill="none" xmlns="http://www.w3.org/2000/svg">
<path d="M0 0H60V60H0V0ZM35.7 49.5333C37.3667 52.8 40.7333 55.3 46 55.3C51.3333 55.3 55.3333 52.5333 55.3333 47.4333C55.3333 42.7333 52.6333 40.6333 47.8333 38.5667L46.4333 37.9667C44 36.9333 42.9667 36.2333 42.9667 34.5667C42.9667 33.2 44 32.1333 45.6667 32.1333C47.2667 32.1333 48.3333 32.8333 49.3 34.5667L53.6667 31.6667C51.8333 28.4667 49.2333 27.2333 45.6667 27.2333C40.6333 27.2333 37.4 30.4333 37.4 34.6667C37.4 39.2667 40.1 41.4333 44.1667 43.1667L45.5667 43.7667C48.1667 44.9 49.7 45.6 49.7 47.5333C49.7 49.1333 48.2 50.3 45.8667 50.3C43.1 50.3 41.5 48.8667 40.3 46.8667L35.7 49.5333ZM33.3333 27.5H16.6667V32.5H21.6667V56.6667H27.5V32.5H33.3333V27.5Z" fill="white" fill-opacity="0.38"/>
</svg>
