<svg width="60" height="60" viewBox="0 0 60 60" fill="none" xmlns="http://www.w3.org/2000/svg">
<path d="M54.5455 30C54.5455 24.4636 52.7182 19.3364 49.0909 14.6727V45.3545C52.7182 40.8273 54.5455 35.7 54.5455 30ZM45.3545 49.0909H14.6727C16.5273 50.5909 18.9545 51.8182 21.9545 52.9364C24.9273 54 27.6273 54.5455 30 54.5455C32.4 54.5455 35.0727 54 38.0455 52.9364C41.0455 51.8182 43.4727 50.5909 45.3545 49.0909ZM27.2727 43.6364L16.3636 21.8182V43.6364H27.2727ZM43.6364 21.8182L32.7273 43.6364H43.6364V21.8182ZM30 36.9L40.2273 16.3636H19.7727L30 36.9ZM45.3545 10.9091C40.8273 7.28182 35.7 5.45455 30 5.45455C24.3 5.45455 19.1727 7.28182 14.6727 10.9091H45.3545ZM10.9091 45.3545V14.6727C7.28182 19.3364 5.45455 24.4636 5.45455 30C5.45455 35.7 7.28182 40.8273 10.9091 45.3545ZM60 30C60 38.2636 57.1091 45.3545 51.2182 51.2182C45.3545 57.1091 38.2636 60 30 60C21.7364 60 14.6727 57.1091 8.78182 51.2182C2.89091 45.3545 0 38.2636 0 30C0 21.7364 2.89091 14.6727 8.78182 8.78182C14.6727 2.89091 21.7364 0 30 0C38.2636 0 45.3545 2.89091 51.2182 8.78182C57.1091 14.6727 60 21.7364 60 30Z" fill="white" fill-opacity="0.38"/>
</svg>
