<svg width="54" height="60" viewBox="0 0 54 60" fill="none" xmlns="http://www.w3.org/2000/svg">
<path d="M26.601 0C25.803 0 24.9754 0.206896 24.2956 0.591133L2.30542 13.3005C0.886699 14.1281 0 15.665 0 17.3202V42.6798C0 44.335 0.886699 45.8719 2.30542 46.6995L8.06897 50.0099C10.8768 51.3695 11.8227 51.399 13.1232 51.399C17.2611 51.399 19.6552 48.8867 19.6552 44.5123V19.4778C19.6552 19.1232 19.3596 18.8276 19.0049 18.8276H16.2562C15.8719 18.8276 15.5764 19.1232 15.5764 19.4778V44.5123C15.5764 46.4631 13.5665 48.3842 10.3448 46.7586L4.28571 43.3005C4.07882 43.1527 3.96059 42.9163 3.96059 42.6798V17.3202C3.96059 17.0542 4.07882 16.8177 4.28571 16.6995L26.2759 4.0197C26.4532 3.90148 26.7488 3.90148 26.9261 4.0197L48.9163 16.6995C49.1232 16.8177 49.2414 17.0542 49.2414 17.3202V42.6798C49.2414 42.9163 49.1232 43.1527 48.9163 43.3005L26.9261 55.9803C26.7488 56.0985 26.4532 56.0985 26.2463 55.9803L20.6897 52.6108C20.4532 52.5222 20.2167 52.4926 20.069 52.5813C18.5025 53.468 18.2069 53.6453 16.7586 54.0887C16.4039 54.2069 15.8424 54.4138 16.9655 55.0345L24.2956 59.3793C25.0049 59.7931 25.7734 60 26.601 60C27.4286 60 28.197 59.7931 28.9064 59.3793L50.8966 46.6995C52.3153 45.8719 53.202 44.335 53.202 42.6798V17.3202C53.202 15.665 52.3153 14.1281 50.8966 13.3005L28.9064 0.591133C28.2266 0.206896 27.4286 0 26.601 0ZM32.5123 18.1773C26.2463 18.1773 22.4926 20.8079 22.4926 25.2414C22.4926 30 26.2167 31.3892 32.2463 31.9803C39.4286 32.6897 39.9902 33.7537 39.9902 35.1724C39.9902 37.6256 38.0099 38.6601 33.399 38.6601C27.5468 38.6601 26.3054 37.2118 25.8621 34.3153C25.803 34.0197 25.5369 33.7833 25.2118 33.7833H22.3744C22.0197 33.7833 21.7537 34.0493 21.7537 34.4335C21.7537 38.0985 23.7635 42.532 33.399 42.532C40.3448 42.532 44.335 39.7833 44.335 34.9951C44.335 30.2365 41.1429 28.9951 34.3744 28.0788C27.5468 27.1921 26.867 26.7192 26.867 25.1232C26.867 23.7931 27.4581 22.0197 32.5123 22.0197C36.9458 22.0197 38.6897 22.9951 39.3695 26.0394C39.4286 26.335 39.6946 26.5419 39.9902 26.5419H42.8571C43.0049 26.5419 43.1823 26.4828 43.3005 26.335C43.4187 26.2167 43.5074 26.0394 43.4483 25.8621C43.0345 20.601 39.5468 18.1773 32.5123 18.1773Z" fill="white" fill-opacity="0.38"/>
</svg>
