<svg width="676" height="648" viewBox="0 0 676 648" fill="none" xmlns="http://www.w3.org/2000/svg">
<g clip-path="url(#clip0)">
<path d="M605.481 6.94573C654.086 32.7237 650.084 136.15 652.081 226.774C654.079 317.398 662.106 395.183 639.486 475.188C616.866 555.192 563.677 637.367 496.676 646.969C429.475 656.772 348.274 594.167 256.469 560.77C164.664 527.374 62.2967 523.163 21.6606 473.362C-18.9754 423.56 2.46321 328.16 45.2617 262.792C88.2608 197.387 152.67 162.186 207.87 137.59C262.87 112.986 308.87 98.9873 382.272 65.9844C455.876 33.1461 556.882 -18.8537 605.481 6.94573Z" fill="white" fill-opacity="0.38"/>
<path d="M68.3831 381.27C63.3707 379.838 48.3336 370.529 45.4694 366.949C42.6052 363.369 35.8027 372.054 48.1546 383.805" fill="white"/>
<path d="M62.6547 375.542C57.6423 374.109 42.6052 364.801 39.741 361.22C36.8767 357.64 30.0742 366.326 42.4262 378.076" stroke="black" stroke-width="4.78" stroke-linecap="round" stroke-linejoin="round"/>
<path d="M125.667 403.468C122.087 399.171 109.914 381.27 107.766 375.542C105.618 369.813 90.9889 364.085 100.448 403.468" fill="white"/>
<path d="M118.507 396.307C114.927 392.011 102.754 374.109 100.606 368.381C98.751 363.447 87.645 358.514 90.6452 382.416" stroke="black" stroke-width="4.78" stroke-linecap="round" stroke-linejoin="round"/>
<path d="M205.421 468.457C200.853 477.937 180.804 515.172 180.804 515.172C180.804 515.172 134.976 417.073 129.964 414.925C124.951 412.776 48.3336 386.282 34.0125 378.406C28.2841 375.542 11.0988 380.554 42.6052 401.319C74.1115 422.085 104.902 439.27 108.482 446.431C112.062 453.591 137.84 564.58 137.84 564.58H233.877C240.236 564.58 261.718 494.407 261.718 494.407C261.718 494.407 210.713 462.571 205.421 468.457Z" fill="white"/>
<path d="M123.798 528.118C127.78 544.96 130.68 557.419 130.68 557.419H226.717C233.075 557.419 254.557 487.246 254.557 487.246C254.557 487.246 203.553 455.41 198.261 461.296C193.692 470.777 173.643 508.011 173.643 508.011C173.643 508.011 127.816 409.912 122.803 407.764C121.256 407.105 112.922 404.134 101.708 400.109" stroke="black" stroke-width="4.78" stroke-linecap="round" stroke-linejoin="round"/>
<path d="M54.6921 406.547C78.5367 421.584 98.4788 433.592 101.322 439.27C103.205 443.044 111.268 475.689 118.464 505.706" stroke="black" stroke-width="4.78" stroke-linecap="round" stroke-linejoin="round"/>
<path d="M82.9118 393.328C60.0697 385.029 34.5209 375.463 26.852 371.245C21.632 368.639 6.91706 372.563 28.1194 388.968" stroke="black" stroke-width="4.78" stroke-linecap="round" stroke-linejoin="round"/>
<path d="M335.156 351.196C378.076 373.479 330.036 484.382 303.65 512.451C282.046 517.134 205.837 480.529 196.421 456.227C204.34 432.275 273.991 319.432 335.156 351.196Z" fill="#8DFBF0"/>
<path d="M630.65 155.713L673.513 254.02L498.731 283.779L630.65 155.713Z" stroke="white" stroke-opacity="0.6" stroke-width="4.78" stroke-linecap="round" stroke-linejoin="round"/>
<path d="M142.169 152.842L57.8906 253.032L146.036 327.179L230.315 226.989L142.169 152.842Z" stroke="white" stroke-opacity="0.6" stroke-width="4.78" stroke-linecap="round" stroke-linejoin="round"/>
<path d="M248.385 366.133C272.587 344.05 301.108 330.072 327.996 344.035C370.916 366.319 322.876 477.221 296.489 505.29C274.886 509.973 198.676 473.369 189.26 449.066C191.731 441.583 200.23 425.436 212.618 407.692" stroke="black" stroke-width="4.78" stroke-linecap="round" stroke-linejoin="round"/>
<path d="M325.303 325.181C342.603 313.589 362.781 306.8 386.311 306.8C475.102 306.8 512.336 424.233 514.485 558.135" stroke="black" stroke-width="4.78" stroke-linecap="round" stroke-linejoin="round"/>
<path d="M249.086 446.388C260.543 409.332 276.819 373.694 299.855 347.709" stroke="black" stroke-width="4.78" stroke-linecap="round" stroke-linejoin="round"/>
<path d="M226.71 557.534C228.557 541.444 231.142 523.45 234.737 504.682" stroke="black" stroke-width="4.78" stroke-linecap="round" stroke-linejoin="round"/>
<path d="M521.473 557.419C518.008 426.825 480.515 313.961 393.471 313.961C283.049 313.961 246.444 463.502 234.737 557.419H521.473Z" fill="#8DFBF0"/>
<path d="M571.081 505.699L550.316 457.172L470.834 505.863C473.269 514.628 481.661 541.265 486.78 557.419" stroke="black" stroke-width="4.78" stroke-linecap="round" stroke-linejoin="round"/>
<path d="M570.695 557.806V495.244L557.448 464.332L477.966 513.024C480.114 520.643 486.702 541.773 491.757 557.777L570.695 557.806Z" fill="white"/>
<path d="M464.361 343.319C508.04 322.554 567.473 427.813 573.917 465.764C564.608 485.814 489.423 524.481 464.361 517.32C450.04 496.555 402.114 372.914 464.361 343.319Z" fill="#8DFBF0"/>
<path d="M500.665 347.709C532.844 374.604 562.324 432.511 566.757 458.604C557.448 478.653 482.262 517.32 457.2 510.16C455.463 507.526 453.894 504.785 452.503 501.954" stroke="black" stroke-width="4.78" stroke-linecap="round" stroke-linejoin="round"/>
<path d="M431.15 440.373C422.644 402.028 422.2 359.065 450.584 339.939" stroke="black" stroke-width="4.78" stroke-linecap="round" stroke-linejoin="round"/>
<path d="M546.263 112.034H571.053V557.419H125.667V536.016" stroke="black" stroke-width="4.78" stroke-linecap="round" stroke-linejoin="round"/>
<path d="M125.667 146.526V112.034H450.584" stroke="black" stroke-width="4.78" stroke-linecap="round" stroke-linejoin="round"/>
<path d="M125.667 411.444V255.459" stroke="black" stroke-width="4.78" stroke-linecap="round" stroke-linejoin="round"/>
<path d="M426.768 246.322C423.188 260.644 416.743 291.434 418.891 332.965C406.718 343.706 365.903 345.854 347.286 331.533C350.866 309.335 350.866 287.854 350.15 273.533C349.434 259.211 426.768 246.322 426.768 246.322Z" fill="white"/>
<path d="M341.558 325.804C345.138 303.607 345.138 282.125 344.422 267.804C343.706 253.483 421.04 240.594 421.04 240.594C417.459 254.915 411.015 285.705 413.163 327.237C405.952 333.595 388.717 336.939 371.983 335.643" stroke="black" stroke-width="4.78" stroke-linecap="round" stroke-linejoin="round"/>
<path d="M370.2 291.047C411.13 291.047 444.311 248.73 444.311 196.528C444.311 144.327 411.13 102.009 370.2 102.009C329.269 102.009 296.088 144.327 296.088 196.528C296.088 248.73 329.269 291.047 370.2 291.047Z" fill="white"/>
<path d="M397.56 273.962C387.713 280.38 376.225 283.826 364.471 283.887C341.744 283.887 321.408 270.84 307.81 250.297" stroke="black" stroke-width="4.78" stroke-linecap="round" stroke-linejoin="round"/>
<path d="M294.205 219.506C291.635 209.667 290.342 199.537 290.36 189.368C290.36 137.167 323.535 94.8485 364.471 94.8485C405.408 94.8485 438.583 137.167 438.583 189.368C438.616 201.712 436.697 213.984 432.897 225.729" stroke="black" stroke-width="4.78" stroke-linecap="round" stroke-linejoin="round"/>
<path d="M334.039 180.775C333.323 187.935 324.014 207.985 316.854 215.146" stroke="black" stroke-width="4.78" stroke-linecap="round" stroke-linejoin="round"/>
<path d="M339.051 243.788C342.632 243.788 349.792 242.356 355.521 233.763" stroke="black" stroke-width="4.78" stroke-linecap="round" stroke-linejoin="round"/>
<path d="M316.464 186.899C317.135 182.901 316.178 179.408 314.325 179.097C312.473 178.786 310.427 181.775 309.756 185.773C309.085 189.77 310.042 193.263 311.895 193.574C313.747 193.885 315.793 190.896 316.464 186.899Z" fill="black"/>
<path d="M458.632 157.861C458.632 119.91 417.101 94.1324 389.175 85.5398C366.598 78.594 331.175 67.6384 312.557 67.6384C289.644 67.6384 271.742 91.2682 271.742 114.898C271.742 140.676 285.347 160.009 301.817 164.306C304.681 155.713 306.113 152.133 306.113 152.133C308.977 155.713 385.595 165.022 411.373 164.306C409.225 173.614 407.793 206.553 422.114 207.269C429.99 207.985 458.632 216.578 458.632 157.861Z" fill="#FB8D98"/>
<path d="M406.719 89.12C398.879 84.6824 390.594 81.0823 382 78.3792C359.423 71.4335 324 60.4779 305.383 60.4779C287.574 60.4779 272.795 74.7417 267.095 92.1919" stroke="black" stroke-width="4.78" stroke-linecap="round" stroke-linejoin="round"/>
<path d="M404.212 157.145C402.064 166.454 400.632 199.392 414.953 200.108C422.83 200.824 451.472 209.417 451.472 150.701C451.472 133.702 443.137 119.151 431.422 107.487" stroke="black" stroke-width="4.78" stroke-linecap="round" stroke-linejoin="round"/>
<path d="M266.372 123.562C270.611 141.22 281.738 153.78 294.627 157.145C297.492 148.553 298.924 144.972 298.924 144.972C300.972 147.536 340.863 153.042 372.806 155.713" stroke="black" stroke-width="4.78" stroke-linecap="round" stroke-linejoin="round"/>
<path d="M427.126 228.751C437.804 228.751 446.459 220.095 446.459 209.417C446.459 198.74 437.804 190.084 427.126 190.084C416.448 190.084 407.793 198.74 407.793 209.417C407.793 220.095 416.448 228.751 427.126 228.751Z" fill="white"/>
<path d="M402.064 203.689C402.062 199.577 403.371 195.571 405.801 192.254C408.231 188.937 411.655 186.481 415.576 185.243" stroke="black" stroke-width="4.78" stroke-linecap="round" stroke-linejoin="round"/>
<path d="M415.576 185.243C418.233 184.409 421.04 184.158 423.803 184.509C426.566 184.86 429.221 185.804 431.585 187.276C433.95 188.748 435.969 190.714 437.503 193.038C439.037 195.363 440.051 197.991 440.476 200.744C440.9 203.497 440.724 206.309 439.961 208.988C439.197 211.666 437.864 214.149 436.052 216.264C434.241 218.38 431.993 220.079 429.464 221.245C426.934 222.412 424.183 223.018 421.398 223.022C419.765 223.022 418.139 222.817 416.557 222.413" stroke="black" stroke-width="4.78" stroke-linecap="round" stroke-linejoin="round"/>
</g>
<defs>
<clipPath id="clip0">
<rect width="675.224" height="648" fill="white"/>
</clipPath>
</defs>
</svg>
